<?xml version="1.0" encoding="UTF-8" standalone="no"?>
<svg
   xmlns:dc="http://purl.org/dc/elements/1.1/"
   xmlns:cc="http://creativecommons.org/ns#"
   xmlns:rdf="http://www.w3.org/1999/02/22-rdf-syntax-ns#"
   xmlns:svg="http://www.w3.org/2000/svg"
   xmlns="http://www.w3.org/2000/svg"
   id="svg14"
   width="138.8000030517578"
   height="148.8000030517578"
   version="1.1">
  <metadata
     id="metadata18">
    <rdf:RDF>
      <cc:Work
         rdf:about="">
        <dc:format>image/svg+xml</dc:format>
        <dc:type
           rdf:resource="http://purl.org/dc/dcmitype/StillImage" />
      </cc:Work>
    </rdf:RDF>
  </metadata>
  <g
     transform="translate(69.4000015258789,148.8000030517578)"
     name="main_text"
     rel="mainfill"
     id="SvgjsG2271">
    <path
       id="path2"
       d="M0 0 c0 0 0 0 0 0 l0 0 c0 0 0 0 0 0 l0 0 l0 0 l0 0 l0 0 c0 0 0 0 0 0 l0 0 c0 0 0 0 0 0 l0 0 c0 0 0 0 0 0 l0 0 c0 0 0 0 0 0 l0 0 c0 0 0 0 0 0 l0 0 l0 0 c0 0 0 0 0 0 l0 0 z M0 0 c0 0 0 0 0 0 l0 0 c0 0 0 0 0 0 c0 0 0 0 0 0 l0 0 c0 0 0 0 0 0 c0 0 0 0 0 0 c0 0 0 0 0 0 l0 0 c0 0 0 0 0 0 c0 0 0 0 0 0 c0 0 0 0 0 0 c0 0 0 0 0 0 c0 0 0 0 0 0 l0 0 z M0 0 c0 0 0 0 0 0 l0 0 c0 0 0 0 0 0 c0 0 0 0 0 0 z M0 0 l0 0 c0 0 0 0 0 0 l0 0 l0 0 l0 0 l0 0 l0 0 c0 0 0 0 0 0 l0 0 l0 0 c0 0 0 0 0 0 l0 0 l0 0 l0 0 l0 0 l0 0 c0 0 0 0 0 0 l0 0 l0 0 z M0 0 l0 0 l0 0 c0 0 0 0 0 0 l0 0 c0 0 0 0 0 0 c0 0 0 0 0 0 c0 0 0 0 0 0 c0 0 0 0 0 0 c0 0 0 0 0 0 l0 0 l0 0 c0 0 0 0 0 0 l0 0 l0 0 c0 0 0 0 0 0 l0 0 l0 0 c0 0 0 0 0 0 l0 0 l0 0 c0 0 0 0 0 0 z M0 0 l0 0 c0 0 0 0 0 0 l0 0 c0 0 0 0 0 0 l0 0 c0 0 0 0 0 0 l0 0 c0 0 0 0 0 0 l0 0 c0 0 0 0 0 0 c0 0 0 0 0 0 c0 0 0 0 0 0 z M0 0 l0 0 c0 0 0 0 0 0 c0 0 0 0 0 0 l0 0 l0 0 z M0 0 c0 0 0 0 0 0 l0 0 c0 0 0 0 0 0 c0 0 0 0 0 0 l0 0 c0 0 0 0 0 0 l0 0 c0 0 0 0 0 0 c0 0 0 0 0 0 l0 0 z M0 0 c0 0 0 0 0 0 l0 0 c0 0 0 0 0 0 c0 0 0 0 0 0 l0 0 c0 0 0 0 0 0 c0 0 0 0 0 0 c0 0 0 0 0 0 l0 0 c0 0 0 0 0 0 c0 0 0 0 0 0 c0 0 0 0 0 0 c0 0 0 0 0 0 c0 0 0 0 0 0 l0 0 z M0 0 c0 0 0 0 0 0 l0 0 c0 0 0 0 0 0 c0 0 0 0 0 0 z M0 0 l0 0 l0 0 c0 0 0 0 0 0 l0 0 c0 0 0 0 0 0 c0 0 0 0 0 0 c0 0 0 0 0 0 c0 0 0 0 0 0 c0 0 0 0 0 0 l0 0 l0 0 c0 0 0 0 0 0 l0 0 l0 0 c0 0 0 0 0 0 l0 0 l0 0 c0 0 0 0 0 0 l0 0 l0 0 c0 0 0 0 0 0 z M0 0 c0 0 0 0 0 0 c0 0 0 0 0 0 c0 0 0 0 0 0 c0 0 0 0 0 0 c0 0 0 0 0 0 c0 0 0 0 0 0 l0 0 c0 0 0 0 0 0 c0 0 0 0 0 0 c0 0 0 0 0 0 l0 0 z M0 0 c0 0 0 0 0 0 c0 0 0 0 0 0 l0 0 z M0 0 c0 0 0 0 0 0 c0 0 0 0 0 0 c0 0 0 0 0 0 c0 0 0 0 0 0 l0 0 c0 0 0 0 0 0 l0 0 c0 0 0 0 0 0 l0 0 c0 0 0 0 0 0 l0 0 c0 0 0 0 0 0 l0 0 c0 0 0 0 0 0 c0 0 0 0 0 0 l0 0 c0 0 0 0 0 0 z"
       fill="#20456a" />
  </g>
  <g
     name="monogram_container"
     rel="inversefill"
     transform="translate(0,0) scale(2.7760000610351563)"
     fill="#20456a"
     id="SvgjsG2272">
    <title
       id="title5">assets</title>
    <circle
       id="circle7"
       r="25"
       cy="25"
       cx="25" />
  </g>
  <defs
     id="SvgjsDefs2270" />
  <g
     transform="translate(28.479999542236328,-19.8800048828125)"
     name="monogram"
     rel="symbolfill"
     id="SvgjsG2273">
    <path
       id="path11"
       d="M17.16 66.96000000000001 q-0.24 0 -0.24 -0.12 l-4.56 -6.72 q-0.36 -0.36 0.12 -0.36 q0.12 -0.12 0.36 0 l4.56 6.72 q0 0.36 -0.12 0.48 l-0.12 0 z M17.16 66.96000000000001 l-0.24 0 q-0.24 -0.24 0 -0.48 l6.84 -6.6 q0.24 -0.24 0.48 0 t0 0.48 l-6.96 6.6 l-0.12 0 z M24 60.48 l-11.4 -0.24 q-0.36 0 -0.36 -0.24 q0 -0.36 0.36 -0.36 l11.4 0.24 q0.24 0 0.24 0.24 q0 0.36 -0.24 0.36 z M12.6 74.75999999999999 q-0.24 0 -0.24 -0.36 l-0.12 -14.4 q0 -0.36 0.36 -0.36 q0.24 0 0.24 0.36 l0.12 14.4 q0 0.36 -0.36 0.36 z M12.6 74.75999999999999 q-0.12 0 -0.12 -0.12 q-0.48 0 -0.12 -0.36 l4.44 -7.68 q0.24 -0.36 0.48 -0.12 q0.12 0 0.12 0.36 l-4.56 7.8 q-0.12 0.12 -0.24 0.12 z M24 72.84 l-0.24 -0.12 l-6.84 -5.76 q-0.24 -0.24 0 -0.48 q0.12 -0.12 0.36 0 l6.84 5.76 q0.12 0.12 0.12 0.48 z M12.6 74.75999999999999 q-0.24 0 -0.24 -0.24 q-0.24 -0.36 0.24 -0.36 l11.28 -1.92 q0.36 -0.12 0.36 0.24 q0 0.24 -0.24 0.24 l-11.28 2.04 l-0.12 0 z M24 72.72 q-0.36 0 -0.36 -0.24 l0 -12.36 q0 -0.24 0.36 -0.24 q0.24 0 0.24 0.24 l0 12.36 q0 0.24 -0.24 0.24 z M24 60.48 q-0.36 0 -0.36 -0.36 q0 -0.24 0.36 -0.24 l6.48 -0.24 q0.36 0 0.36 0.36 q0 0.24 -0.36 0.24 z M30.48 67.44 q-0.24 0 -0.24 -0.36 l0 -7.08 q0 -0.24 0.24 -0.24 q0.36 0 0.36 0.24 l0 7.08 q0 0.36 -0.36 0.36 z M30.48 67.44 l-0.12 -0.12 l-6.6 -6.96 q-0.24 -0.24 0 -0.48 q0.12 -0.12 0.48 0.12 l6.48 6.84 q0.24 0.24 0 0.48 q-0.12 0.12 -0.24 0.12 z M24 72.84 l-0.24 -0.12 q-0.24 -0.24 0 -0.48 l6.6 -5.4 q0.36 -0.36 0.36 0 q0.12 0.36 0 0.48 l-6.6 5.4 z M30.48 67.44 l-0.24 -0.24 q0 -0.24 0.12 -0.36 l9.36 -6.48 q0.12 -0.12 0.48 0.12 q0 0.36 -0.12 0.36 l-9.36 6.48 q-0.12 0 -0.12 0.06 t-0.12 0.06 z M39.84 60.96 q-0.24 0 -0.24 -0.24 q0 -0.36 0.24 -0.36 l9.48 -2.16 q0.36 0 0.36 0.24 q0 0.36 -0.24 0.36 l-9.48 2.16 l-0.12 0 z M58.8 61.2 l-0.12 0 l-9.36 -2.4 q-0.24 0 -0.24 -0.36 q0.12 -0.24 0.36 -0.24 l9.36 2.4 q0.36 0.24 0.24 0.36 q0 0.24 -0.24 0.24 z M65.16 67.44 l-0.24 0 l-6.36 -6.24 q-0.24 -0.24 0 -0.48 t0.48 0 l6.24 6.24 q0.24 0.24 0 0.48 l-0.12 0 z M68.88 76.68 q-0.24 0 -0.24 -0.12 l-3.84 -9.24 q0 -0.36 0.24 -0.36 q0.12 -0.12 0.36 0.12 l3.72 9.24 q0.36 0.36 -0.12 0.36 l-0.12 0 z M69.6 86.88 q-0.36 0 -0.36 -0.36 l-0.72 -10.08 q0 -0.12 0.36 -0.36 q0.24 0 0.24 0.36 l0.72 10.08 q0 0.36 -0.24 0.36 z M69.48 100.92 q-0.24 0 -0.24 -0.36 l0 -14.04 q0 -0.24 0.24 -0.24 q0.36 0 0.36 0.24 l0 14.04 q0 0.36 -0.36 0.36 z M69.6 111.96000000000001 q-0.36 0 -0.36 -0.24 l0 -11.16 q0 -0.24 0.24 -0.24 q0.36 0 0.36 0.24 l0 11.16 q0 0.24 -0.24 0.24 z M69.48 120.36 q-0.24 0 -0.24 -0.36 l0 -8.28 q0 -0.24 0.24 -0.24 q0.36 0 0.36 0.24 l0 8.28 q0 0.36 -0.36 0.36 z M12.6 84.47999999999999 q-0.24 0 -0.24 -0.36 l0 -9.72 q0 -0.24 0.24 -0.24 q0.36 0 0.36 0.24 l0 9.72 q0 0.36 -0.36 0.36 z M21.48 84.47999999999999 l-8.88 0 q-0.36 0 -0.36 -0.24 q0 -0.36 0.36 -0.36 l8.88 0 q0.24 0 0.24 0.36 q0 0.24 -0.24 0.24 z M21.48 84.47999999999999 q-0.12 0 -0.12 -0.06 t-0.12 -0.06 l-8.88 -9.72 q-0.24 -0.24 0 -0.48 q0.36 0 0.48 0.12 l8.88 9.6 q0.24 0.24 0 0.48 q-0.12 0 -0.12 0.06 t-0.12 0.06 z M21.48 84.47999999999999 l0 -0.12 q-0.48 0 -0.24 -0.24 l2.4 -11.64 q0 -0.6 0.36 -0.24 q0.24 0 0.24 0.36 l-2.4 11.64 q-0.24 0.24 -0.36 0.24 z M21.48 84.47999999999999 q-0.24 0 -0.24 -0.24 q-0.36 -0.36 0.12 -0.36 l11.04 -3.72 q0.24 0 0.48 0.24 q0 0.36 -0.24 0.36 l-11.04 3.6 z M32.52 80.75999999999999 q-0.12 0 -0.12 -0.12 l-8.64 -7.92 q-0.24 -0.24 0 -0.48 q0.12 -0.12 0.36 0 l8.64 8.04 q0.12 0.24 0 0.36 q0 0.12 -0.24 0.12 z M32.52 80.75999999999999 q-0.24 0 -0.24 -0.24 l-2.04 -13.44 q0 -0.24 0.24 -0.24 q0.36 -0.36 0.36 0.24 l2.04 13.32 q0 0.36 -0.24 0.36 l-0.12 0 z M30.48 89.52 l-0.12 0 l-9 -5.16 q-0.48 0 -0.12 -0.36 q0.24 -0.24 0.36 -0.12 l9 5.16 q0.48 0 0.12 0.36 q0 0.12 -0.24 0.12 z M30.48 89.52 q-0.48 0 -0.24 -0.36 l2.04 -8.76 q0 -0.24 0.36 -0.24 q0.24 0.24 0.24 0.36 l-2.04 8.76 q-0.12 0.24 -0.36 0.24 z M32.52 80.75999999999999 q-0.12 0 -0.24 -0.12 q-0.24 -0.12 0 -0.36 l5.88 -5.76 q0.24 -0.24 0.48 0 q0.12 0.24 0 0.36 l-5.88 5.76 q-0.12 0.12 -0.24 0.12 z M38.4 75 q-0.12 0 -0.24 -0.12 l-7.8 -7.56 q-0.24 -0.24 0 -0.48 q0.12 -0.12 0.36 0 l7.92 7.68 q0.12 0.24 0 0.36 t-0.24 0.12 z M45.72 66.96000000000001 l-0.24 0 l-5.76 -6.12 q-0.24 -0.24 0 -0.48 q0.24 0 0.36 0.12 l5.76 6 q0.24 0.24 0 0.48 l-0.12 0 z M30.48 67.44 q-0.24 0 -0.24 -0.36 q0 -0.24 0.24 -0.24 l15.12 -0.48 q0.36 0 0.36 0.36 t-0.24 0.36 l-15.12 0.36 l-0.12 0 z M38.4 75 l-0.24 0 q-0.24 -0.24 0 -0.48 l7.32 -8.04 q0.12 -0.12 0.36 0 q0.24 0.24 0 0.48 l-7.2 7.92 q-0.12 0.12 -0.24 0.12 z M45.72 75 l-7.32 0 q-0.36 0 -0.36 -0.24 q0 -0.36 0.36 -0.36 l7.32 0 q0.24 0 0.24 0.36 q0 0.24 -0.24 0.24 z M45.72 75 q-0.36 0 -0.36 -0.24 l0 -8.04 q0 -0.36 0.36 -0.36 q0.24 0 0.24 0.36 l0 7.92 q0 0.36 -0.24 0.36 z M50.64 81.84 l-0.24 -0.12 l-4.92 -6.84 q-0.36 -0.36 0 -0.36 q0.36 -0.12 0.48 0 l4.92 6.84 q0.12 0.12 -0.12 0.36 z M50.64 81.84 l-0.24 -0.12 q-0.24 -0.24 0 -0.48 l7.44 -5.76 q0.24 -0.24 0.48 0 q0.36 0.36 -0.12 0.36 l-7.44 5.88 z M58.08 75.96000000000001 l-12.36 -0.96 q-0.36 0 -0.36 -0.36 q0.24 -0.24 0.36 -0.24 l12.36 0.96 q0.36 0 0.24 0.36 q0 0.24 -0.24 0.24 z M58.08 75.96000000000001 l-0.24 0 l-12.36 -9 q-0.12 -0.12 0 -0.48 q0 -0.36 0.36 0 l12.36 8.88 q0.24 0.36 0.12 0.48 t-0.24 0.12 z M45.72 66.96000000000001 l-0.12 0 q-0.24 0 -0.24 -0.36 l3.72 -8.28 q0.12 -0.12 0.48 -0.12 q0.24 0.24 0.12 0.36 l-3.72 8.28 z M45.72 66.96000000000001 q-0.24 0 -0.36 -0.12 q0 -0.36 0.24 -0.36 l13.08 -5.76 q0.36 -0.36 0.36 0.12 q0.36 0.36 -0.12 0.36 l-13.08 5.76 l-0.12 0 z M58.08 75.96000000000001 q-0.36 0 -0.36 -0.36 l0.72 -14.64 q0 -0.36 0.36 -0.36 q0.24 0 0.24 0.36 l-0.72 14.76 q0 0.24 -0.24 0.24 z M58.08 75.96000000000001 q-0.12 0 -0.24 -0.12 q-0.36 0 0 -0.36 l7.08 -8.52 q0.12 -0.12 0.36 0 q0.12 0.12 0.12 0.48 l-7.08 8.4 q-0.12 0.12 -0.24 0.12 z M68.88 76.68 l-10.8 -0.72 q-0.36 0 -0.36 -0.36 q0 -0.24 0.36 -0.24 l10.8 0.72 q0.24 0.24 0.24 0.36 q0 0.24 -0.24 0.24 z M51.6 89.52 q-0.12 0 -0.36 -0.24 l-0.96 -7.8 q0 -0.24 0.24 -0.24 q0.36 -0.12 0.36 0.24 l0.96 7.8 q0.24 0.24 -0.24 0.24 z M61.92 90.48 l-10.32 -0.96 q-0.36 0 -0.36 -0.36 q0.24 -0.24 0.36 -0.24 l10.32 0.96 q0.36 0 0.24 0.36 q0 0.24 -0.24 0.24 z M61.92 90.48 l-0.24 0 l-11.28 -8.76 q-0.24 -0.12 0 -0.36 t0.36 -0.12 l11.28 8.76 q0.48 0 0.12 0.36 q-0.12 0.12 -0.24 0.12 z M61.92 90.48 q-0.24 0 -0.24 -0.24 l-3.96 -14.52 q0 -0.36 0.24 -0.36 q0.36 0 0.36 0.24 l3.84 14.52 q0.36 0.36 -0.12 0.36 l-0.12 0 z M61.92 90.48 l-0.12 0 q-0.24 -0.24 -0.12 -0.48 l6.96 -13.68 q0 -0.48 0.36 -0.12 q0.48 0 0.12 0.36 l-6.96 13.8 q0 0.12 -0.24 0.12 z M61.92 90.48 q-0.24 0 -0.24 -0.12 q-0.12 -0.24 0.12 -0.48 l7.56 -3.6 q0.24 -0.12 0.48 0.12 q0 0.36 -0.12 0.36 l-7.68 3.72 l-0.12 0 z M51.48 99.48 q-0.24 0 -0.24 -0.36 l0 -9.84 q0 -0.24 0.24 -0.24 q0.36 0 0.36 0.24 l0 9.84 q0 0.36 -0.36 0.36 z M51.48 99.48 l-0.12 -0.12 q-0.24 -0.24 0 -0.48 l10.32 -8.88 q0.24 -0.24 0.48 0 q0.36 0.36 0 0.36 l-10.44 9 q-0.12 0.12 -0.24 0.12 z M69.24 99.48 l-0.24 -0.12 l-7.32 -9 q-0.36 -0.36 0 -0.36 q0.24 -0.24 0.48 0 l7.32 8.88 q0.12 0.24 -0.12 0.48 z M61.92 104.16 l-0.24 -0.12 q-0.12 -0.36 0 -0.48 l7.32 -4.68 q0.24 -0.12 0.48 0.12 q0.12 0.12 -0.12 0.36 l-7.32 4.68 z M61.92 104.16 q-0.36 0 -0.36 -0.36 l0 -13.56 q0 -0.36 0.36 -0.36 q0.24 0 0.24 0.36 l0 13.56 q0 0.36 -0.24 0.36 z M61.92 104.16 l-0.12 0 l-10.44 -4.8 q-0.12 0 -0.12 -0.36 q0.24 -0.24 0.36 -0.12 l10.44 4.68 q0.12 0.12 0.12 0.36 z M51.6 108.72 q-0.36 0 -0.36 -0.24 l0 -9.36 q0 -0.24 0.24 -0.24 q0.36 0 0.36 0.24 l0 9.36 q0 0.24 -0.24 0.24 z M51.6 108.72 q-0.24 0 -0.24 -0.12 q-0.24 -0.12 0.12 -0.48 l10.32 -4.56 q0.12 -0.12 0.36 0.12 q0 0.36 -0.12 0.48 l-10.32 4.56 l-0.12 0 z M57.48 116.16 l-0.12 0 q-0.24 -0.24 -0.12 -0.36 l4.32 -12.12 q0.24 -0.24 0.36 -0.12 q0.24 0 0.24 0.36 l-4.44 12 q0 0.24 -0.24 0.24 z M57.48 116.16 q-0.24 0 -0.24 -0.12 l-5.88 -7.44 q-0.24 -0.12 0 -0.36 t0.48 0 l5.88 7.44 q0.24 0.24 0 0.48 l-0.24 0 z M51.36 120.36 q-0.24 0 -0.24 -0.36 l0.12 -11.52 q0 -0.36 0.36 -0.36 q0.24 0 0.24 0.36 l-0.12 11.52 q0 0.36 -0.36 0.36 z M51.36 120.36 q-0.12 0 -0.12 -0.06 t-0.12 -0.06 q-0.24 -0.12 0.12 -0.48 l6.12 -4.2 q0.24 0 0.36 0.12 q0.24 0.24 -0.12 0.48 l-6 4.08 q-0.12 0.12 -0.24 0.12 z M69.48 120.36 l0 -0.12 l-12.12 -4.08 q-0.24 -0.24 -0.12 -0.36 q0 -0.24 0.36 -0.24 l12 4.2 q0.24 0 0.24 0.36 q-0.24 0.24 -0.36 0.24 z M51.36 120.36 q-0.24 0 -0.24 -0.36 q0 -0.24 0.24 -0.24 l18.12 0 q0.36 0 0.36 0.24 q0 0.36 -0.36 0.36 l-18.12 0 z M69.48 120.36 l-0.24 -0.24 l-7.68 -16.2 q0 -0.24 0.24 -0.36 q0.12 -0.12 0.36 0.12 l7.68 16.2 q0 0.36 -0.12 0.36 t-0.12 0.06 t-0.12 0.06 z M12.6 96.6 q-0.24 0 -0.24 -0.24 l0 -12.24 q0 -0.24 0.24 -0.24 q0.36 0 0.36 0.24 l0 12.24 q0 0.24 -0.36 0.24 z M12.6 96.6 l-0.12 0 q-0.36 -0.24 -0.12 -0.48 l8.88 -12.12 q0.12 -0.24 0.48 -0.12 q0.12 0.12 0 0.48 l-8.88 12.12 q0 0.12 -0.24 0.12 z M20.88 99.48 q-0.24 -0.24 -0.24 -0.36 l0.6 -15 q0 -0.36 0.36 -0.24 q0.24 0 0.24 0.24 l-0.6 15 q0 0.36 -0.36 0.36 z M20.88 99.48 l-0.12 -0.12 q-0.24 -0.24 0 -0.48 l9.48 -9.84 q0.24 -0.24 0.48 0 t0 0.48 l-9.6 9.84 q-0.12 0.12 -0.24 0.12 z M30.48 104.16 q-0.24 0 -0.24 -0.36 l0 -14.52 q0 -0.36 0.24 -0.36 q0.36 0 0.36 0.36 l0 14.52 q0 0.24 -0.36 0.36 z M30.48 104.16 q0 -0.12 -0.12 -0.12 l-9.6 -4.68 q-0.12 0 -0.12 -0.36 q0.24 -0.24 0.48 -0.12 l9.6 4.68 q0.12 0 0.12 0.36 q-0.24 0.24 -0.36 0.24 z M20.88 99.48 l0 -0.12 l-8.4 -2.76 q-0.48 0 -0.12 -0.36 q0 -0.24 0.36 -0.24 l8.28 2.88 q0.24 0 0.24 0.36 q-0.24 0.24 -0.36 0.24 z M12.6 108.72 q-0.24 0 -0.24 -0.24 l0 -12.12 q0 -0.36 0.24 -0.36 q0.36 0 0.36 0.36 l0 12.12 q0 0.24 -0.36 0.24 z M12.6 108.72 l-0.12 0 q-0.24 -0.24 0 -0.48 l8.28 -9.36 q0 -0.36 0.36 0 q0.24 0.24 0 0.48 l-8.28 9.24 q0 0.12 -0.24 0.12 z M23.04 113.52 q-0.24 0 -0.36 -0.36 l-2.04 -14.04 q0 -0.24 0.24 -0.24 q0.36 -0.36 0.36 0.24 l2.04 14.04 q0 0.24 -0.24 0.36 z M23.04 113.52 q-0.12 0 -0.12 -0.06 t-0.12 -0.06 q-0.12 -0.12 0 -0.48 l7.56 -9.36 q0 -0.36 0.36 0 q0.24 0.24 0 0.48 l-7.44 9.36 q-0.12 0 -0.12 0.06 t-0.12 0.06 z M30.48 120.36 q-0.24 0 -0.24 -0.36 l0 -16.2 q0 -0.24 0.24 -0.24 q0.36 0 0.36 0.24 l0 16.32 q0 0.24 -0.36 0.24 z M30.48 120.36 q-0.12 0 -0.24 -0.12 l-7.44 -6.84 q-0.24 -0.24 0 -0.48 q0.12 -0.12 0.48 0 l7.44 6.84 q0.24 0.24 0 0.48 q-0.12 0 -0.12 0.06 t-0.12 0.06 z M12.6 120.36 q-0.12 0 -0.12 -0.06 t-0.12 -0.06 q-0.12 -0.24 0.12 -0.48 l10.32 -6.84 q0.24 -0.12 0.48 0.12 q0.12 0.12 -0.12 0.36 l-10.32 6.84 q-0.12 0.12 -0.24 0.12 z M30.48 120.36 l-17.88 0 q-0.36 0 -0.36 -0.24 q0 -0.36 0.36 -0.36 l17.88 0 q0.24 0 0.24 0.36 q0 0.24 -0.24 0.24 z M12.6 120.36 q-0.36 0 -0.36 -0.24 l0.12 -11.64 q0 -0.36 0.24 -0.36 q0.36 0 0.36 0.36 l-0.12 11.64 q0 0.24 -0.24 0.24 z M23.04 113.52 l-0.12 -0.12 l-10.44 -4.68 q-0.12 -0.12 -0.12 -0.36 q0.12 -0.24 0.36 -0.24 l10.44 4.8 q0.48 0 0.12 0.36 q0 0.24 -0.24 0.24 z"
       fill="#ffffff" />
  </g>
</svg>
