<?xml version="1.0" ?><svg height="3em" version="1.1" viewBox="0 0 60 60" width="3em" xmlns="http://www.w3.org/2000/svg" xmlns:xlink="http://www.w3.org/1999/xlink"><title/><desc/><defs/><g fill="none" fill-rule="evenodd" id="People" stroke="none" stroke-width="1"><g fill="#FFF5EE" id="Icon-64"><path d="M44,30 C44,30.34 43.827,30.657 43.541,30.841 L29.541,39.841 C29.377,39.946 29.188,40 29,40 C28.835,40 28.671,39.959 28.521,39.878 C28.2,39.702 28,39.366 28,39 L28,33.857 C28,33.305 28.447,32.857 29,32.857 C29.553,32.857 30,33.305 30,33.857 L30,37.168 L41.15,30 L30,22.832 L30,26.143 C30,26.509 29.8,26.845 29.479,27.021 C29.156,27.194 28.768,27.183 28.459,26.983 L22,22.832 L22,37.168 L24.469,35.581 C24.936,35.284 25.553,35.418 25.851,35.881 C26.149,36.346 26.015,36.964 25.551,37.263 L21.541,39.841 C21.232,40.038 20.843,40.052 20.521,39.878 C20.2,39.702 20,39.366 20,39 L20,21 C20,20.634 20.2,20.298 20.521,20.122 C20.843,19.948 21.23,19.959 21.541,20.159 L28,24.311 L28,21 C28,20.634 28.2,20.298 28.521,20.122 C28.843,19.948 29.232,19.959 29.541,20.159 L43.541,29.159 C43.827,29.343 44,29.66 44,30 M30,58 C14.561,58 2,45.439 2,30 C2,14.561 14.561,2 30,2 C45.439,2 58,14.561 58,30 C58,45.439 45.439,58 30,58 M30,0 C13.458,0 0,13.458 0,30 C0,46.542 13.458,60 30,60 C46.542,60 60,46.542 60,30 C60,13.458 46.542,0 30,0" id="control-forward"/></g></g></svg>
