<?xml version="1.0" ?><svg height="3em" version="1.1" viewBox="0 0 60 60" width="3em" xmlns="http://www.w3.org/2000/svg" xmlns:xlink="http://www.w3.org/1999/xlink"><title/><desc/><defs/><g fill="none" fill-rule="evenodd" id="People" stroke="none" stroke-width="1"><g fill="#FFF5EE" id="Icon-62"><path d="M28,21 L28,39 C28,39.553 27.552,40 27,40 C26.448,40 26,39.553 26,39 L26,22 L22,22 L22,38 L23,38 C23.552,38 24,38.447 24,39 C24,39.553 23.552,40 23,40 L21,40 C20.448,40 20,39.553 20,39 L20,21 C20,20.447 20.448,20 21,20 L27,20 C27.552,20 28,20.447 28,21 M40,21 L40,39 C40,39.553 39.552,40 39,40 C38.448,40 38,39.553 38,39 L38,22 L34,22 L34,38 L35,38 C35.552,38 36,38.447 36,39 C36,39.553 35.552,40 35,40 L33,40 C32.448,40 32,39.553 32,39 L32,21 C32,20.447 32.448,20 33,20 L39,20 C39.552,20 40,20.447 40,21 M30,58 C14.561,58 2,45.439 2,30 C2,14.561 14.561,2 30,2 C45.439,2 58,14.561 58,30 C58,45.439 45.439,58 30,58 M30,0 C13.458,0 0,13.458 0,30 C0,46.542 13.458,60 30,60 C46.542,60 60,46.542 60,30 C60,13.458 46.542,0 30,0" id="control-pause"/></g></g></svg>
