<?xml version="1.0" ?><svg height="3em" version="1.1" viewBox="0 0 60 60" width="3em" xmlns="http://www.w3.org/2000/svg" xmlns:xlink="http://www.w3.org/1999/xlink"><title/><desc/><defs/><g fill="none" fill-rule="evenodd" id="People" stroke="none" stroke-width="1"><g fill="#FFF5EE" id="Icon-61"><path d="M40,30 C40,30.34 39.827,30.657 39.541,30.841 L29.531,37.276 C29.065,37.574 28.448,37.44 28.149,36.977 C27.851,36.512 27.985,35.894 28.449,35.595 L37.151,30 L26,22.832 L26,39 C26,39.553 25.552,40 25,40 C24.448,40 24,39.553 24,39 L24,21 C24,20.634 24.2,20.298 24.521,20.122 C24.841,19.947 25.232,19.959 25.541,20.159 L39.541,29.159 C39.827,29.343 40,29.66 40,30 M30,58 C14.561,58 2,45.439 2,30 C2,14.561 14.561,2 30,2 C45.439,2 58,14.561 58,30 C58,45.439 45.439,58 30,58 M30,0 C13.458,0 0,13.458 0,30 C0,46.542 13.458,60 30,60 C46.542,60 60,46.542 60,30 C60,13.458 46.542,0 30,0" id="control-play"/></g></g></svg>
