<svg xmlns="http://www.w3.org/2000/svg" xmlns:xlink="http://www.w3.org/1999/xlink" version="1.1" id="Capa_1" x="0px" y="0px" viewBox="0 0 79.144 79.144" style="enable-background:new 0 0 79.144 79.144;" xml:space="preserve" width="1.4em" height="1.4em">
	<g>
		<path d="M0,28.625v22.062c0,3.744,3.257,6.41,6.646,6.41h9.749c2.053,1,11.604,8.503,19.806,15.51    c0.369,0.315,0.831,0.574,1.299,0.574c0.284,0,0.319-0.013,0.587-0.136C38.796,72.718,39,72.057,39,71.276V8.035    c0-0.788-0.212-1.502-0.931-1.824c-0.718-0.323-1.436-0.385-2.023,0.14c-8.179,7.271-17.586,15.746-19.665,15.746H6.647    C3.085,22.097,0,25.063,0,28.625z M4,28.625c0-1.324,1.322-2.528,2.646-2.528h9.928c0.742,0,2.426,0.381,18.426-13.631v54.493    C19,53.478,17.312,53.097,16.574,53.097H6.646C5.362,53.097,4,52.035,4,50.687V28.625z" fill="#FFFFFF"/>
	</g>
</svg>