<svg xmlns="http://www.w3.org/2000/svg" xmlns:xlink="http://www.w3.org/1999/xlink" version="1.1" id="Capa_1" x="0px" y="0px" viewBox="0 0 79.144 79.144" style="vertical-align:middle;" xml:space="preserve" width="1.5em" height="1.5em">
	<g>
		<path d="M45.78,50.613c-0.861,0.691-0.999,1.95-0.308,2.812c0.396,0.492,0.976,0.748,1.561,0.748c0.439,0,0.882-0.144,1.251-0.44    c4.303-3.455,6.77-8.597,6.769-14.108c0-5.53-2.48-10.684-6.807-14.138c-0.861-0.69-2.122-0.548-2.811,0.314    c-0.689,0.863-0.549,2.121,0.314,2.811c3.37,2.691,5.303,6.705,5.303,11.013C51.054,43.916,49.132,47.921,45.78,50.613z" fill="currentColor"/>
		<path d="M55.49,62.196c0.439,0,0.882-0.144,1.251-0.44c6.747-5.417,10.616-13.481,10.615-22.125    c-0.002-8.67-3.894-16.75-10.676-22.169c-0.861-0.689-2.122-0.552-2.811,0.314c-0.689,0.862-0.549,2.121,0.314,2.811    c5.827,4.656,9.17,11.598,9.172,19.044c0.001,7.425-3.323,14.353-9.119,19.006c-0.861,0.691-0.999,1.95-0.308,2.812    C54.325,61.94,54.905,62.196,55.49,62.196z" fill="currentColor"/>
		<path d="M63.39,70.304c0.439,0,0.882-0.145,1.251-0.44c9.217-7.402,14.503-18.419,14.503-30.226    C79.141,27.796,73.825,16.757,64.56,9.353c-0.864-0.689-2.12-0.551-2.812,0.313c-0.689,0.863-0.549,2.122,0.313,2.812    c8.312,6.642,13.079,16.541,13.082,27.161c0,10.587-4.741,20.467-13.007,27.105c-0.861,0.691-0.999,1.951-0.308,2.812    C62.225,70.048,62.805,70.304,63.39,70.304z" fill="currentColor"/>
		<path d="M0,28.625v22.062c0,3.744,3.257,6.41,6.646,6.41h9.749c2.053,1,11.604,8.503,19.806,15.51    c0.369,0.315,0.831,0.574,1.299,0.574c0.284,0,0.319-0.013,0.587-0.136C38.796,72.718,39,72.057,39,71.276V8.035    c0-0.788-0.212-1.502-0.931-1.824c-0.718-0.323-1.436-0.385-2.023,0.14c-8.179,7.271-17.586,15.746-19.665,15.746H6.647    C3.085,22.097,0,25.063,0,28.625z M4,28.625c0-1.324,1.322-2.528,2.646-2.528h9.928c0.742,0,2.426,0.381,18.426-13.631v54.493    C19,53.478,17.312,53.097,16.574,53.097H6.646C5.362,53.097,4,52.035,4,50.687V28.625z" fill="currentColor"/>
	</g>
</svg>